<svg width="169" height="169" viewBox="0 0 169 169" fill="none" xmlns="http://www.w3.org/2000/svg">
<path d="M164.529 147.521C165.648 148.636 166.536 149.96 167.141 151.419C167.747 152.878 168.059 154.441 168.059 156.021C168.059 157.6 167.747 159.164 167.141 160.623C166.536 162.081 165.648 163.406 164.529 164.521C162.265 166.756 159.211 168.009 156.029 168.009C152.848 168.009 149.794 166.756 147.529 164.521L84.0295 101.021L20.5295 164.521C18.265 166.756 15.2112 168.009 12.0295 168.009C8.84769 168.009 5.79395 166.756 3.52946 164.521C2.41075 163.406 1.5231 162.081 0.917439 160.623C0.311774 159.164 0 157.6 0 156.021C0 154.441 0.311774 152.878 0.917439 151.419C1.5231 149.96 2.41075 148.636 3.52946 147.521L67.0295 84.0208L3.52946 20.5208C1.27512 18.2665 0.00864792 15.2089 0.00864792 12.0208C0.00864792 10.4422 0.319577 8.87908 0.923679 7.42065C1.52778 5.96222 2.41323 4.63705 3.52946 3.52082C4.6457 2.40458 5.97087 1.51913 7.4293 0.915031C8.88773 0.310929 10.4509 0 12.0295 0C15.2176 0 18.2751 1.26648 20.5295 3.52082L84.0295 67.0208L147.529 3.52082C149.784 1.26648 152.841 0 156.029 0C159.218 0 162.275 1.26648 164.529 3.52082C166.784 5.77516 168.05 8.8327 168.05 12.0208C168.05 15.2089 166.784 18.2665 164.529 20.5208L101.029 84.0208L164.529 147.521Z" fill="#343434"/>
</svg>
